# xmcd
#
# Track frame offsets:
#	150
#	12907
#	26751
#	39671
#	51609
#	64185
#	75089
#	87899
#	101836
#	114290
#	127189
#	141137
#	152718
#	164198
#	176617
#	187911
#	201268
#	214249
#
# Disc length: 3029 seconds
#
# Revision: 0
# Processed by: cddbd v1.4PL0 Copyright (c) Steve Scherf et al.
# Submitted via: dBpowerAMP V4.0
#
DISCID=010bd312
DTITLE=Georgia Tom Dorsey  - Georgia Tom: The Essential (D 2)
DYEAR=2002
DGENRE=Blues
TTITLE0=Missippi Bottom Blues 
TTITLE1=Weary Money Blues - w Chippie Hill
TTITLE2=Terrible Operation Blues - w Jane Lucas
TTITLE3=Levee Bound Blues 
TTITLE4=Been Mistreated Blues 
TTITLE5=Where Did You Stay Last Night - w Jane Lucas
TTITLE6=Ain't Going There No More No.2 - w Jane Lucas
TTITLE7=Develish Blues - w Stovepipe Johnson
TTITLE8=That's The Way She Likes It - w David Cross
TTITLE9=Second-Hand Blues 
TTITLE10=M&O Blues - Part 1 - w Bumble Bee Slim
TTITLE11=M&O Blues - Part 2 - w Bumble Bee Slim
TTITLE12=Maybe It's The Blue 
TTITLE13=You Got Me In This Mess 
TTITLE14=Then My Gal's In Town 
TTITLE15=Get The 'L' On Down The Road - w Bill Johnson's Louisiana Jug Band
TTITLE16=Don't Drink It In Here - w Bill Johnson's Louisiana Jug Band
TTITLE17=Hard Times Blues - w Chippie Hill 
EXTD=william hale
EXTT0=
EXTT1=
EXTT2=
EXTT3=
EXTT4=
EXTT5=
EXTT6=
EXTT7=
EXTT8=
EXTT9=
EXTT10=
EXTT11=
EXTT12=
EXTT13=
EXTT14=
EXTT15=
EXTT16=
EXTT17=
PLAYORDER=
